<?xml version="1.0" standalone="no"?><!-- Generator: Gravit.io --><svg xmlns="http://www.w3.org/2000/svg" xmlns:xlink="http://www.w3.org/1999/xlink" style="isolation:isolate" viewBox="0 0 48 48" width="48" height="48"><defs><clipPath id="_clipPath_W1azPRVmxONkaXaGClLA75Pf2sEhxt5y"><rect width="48" height="48"/></clipPath></defs><g clip-path="url(#_clipPath_W1azPRVmxONkaXaGClLA75Pf2sEhxt5y)"><linearGradient id="_lgradient_5" x1="0" y1="0.5" x2="1" y2="0.5" gradientTransform="matrix(45,0,0,34,1.653,12.046)" gradientUnits="userSpaceOnUse"><stop offset="2.608695652173913%" stop-opacity="1" style="stop-color:rgb(197,14,210)"/><stop offset="98.69565217391305%" stop-opacity="1" style="stop-color:rgb(133,0,247)"/></linearGradient><path d=" M 5.687 12.164 C 5.425 12.352 5.354 12.698 5.354 13.794 L 5.354 14.862 L 3.963 14.888 C 2.426 14.918 2.125 15.019 1.796 15.621 C 1.638 15.909 1.595 24.226 1.75 24.5 C 1.88 24.73 2.312 24.845 2.64 24.737 C 3.15 24.569 3.158 24.504 3.158 20.189 L 3.158 16.285 L 8.034 16.285 L 12.911 16.285 L 12.911 18.183 C 12.911 19.977 12.921 20.093 13.093 20.3 L 13.275 20.518 L 29.216 20.518 L 45.158 20.518 L 45.158 32.597 L 45.158 44.676 L 24.159 44.676 L 3.161 44.676 L 3.137 35.675 L 3.114 26.675 L 2.901 26.461 C 2.618 26.176 2.126 26.166 1.855 26.439 L 1.664 26.631 L 1.664 35.89 L 1.664 45.149 L 1.862 45.424 C 1.97 45.575 2.171 45.776 2.307 45.872 L 2.555 46.046 L 24.158 46.046 L 45.76 46.046 L 46.008 45.872 C 46.144 45.776 46.345 45.574 46.455 45.423 L 46.653 45.147 L 46.63 32.563 L 46.607 19.979 L 46.403 19.708 C 46.041 19.229 45.79 19.159 44.301 19.122 L 42.961 19.089 L 42.961 15.908 C 42.961 12.685 42.934 12.384 42.628 12.164 C 42.406 12.005 35.956 12.007 35.734 12.167 C 35.478 12.35 35.372 12.752 35.507 13.019 C 35.722 13.443 35.846 13.459 38.765 13.461 L 41.467 13.462 L 41.467 16.285 L 41.467 19.107 L 27.936 19.107 L 14.404 19.107 L 14.404 17.634 C 14.403 15.963 14.347 15.678 13.944 15.311 C 13.474 14.882 13.396 14.873 10.005 14.873 L 6.848 14.873 L 6.848 14.168 L 6.848 13.462 L 20.078 13.462 C 29.967 13.462 33.356 13.438 33.499 13.365 C 33.963 13.132 34.058 12.597 33.695 12.255 L 33.479 12.051 L 19.658 12.053 C 8.459 12.056 5.809 12.077 5.687 12.164 Z  M 16.282 22.773 C 15.94 22.931 15.898 23.182 15.898 25.082 L 15.898 26.898 L 14.631 26.925 C 13.159 26.956 12.911 27.062 12.911 27.658 C 12.911 28.242 13.115 28.322 14.608 28.322 L 15.898 28.322 L 15.898 29.401 L 15.898 30.48 L 14.706 30.48 C 13.221 30.48 12.92 30.603 12.914 31.21 C 12.908 31.791 13.16 31.892 14.62 31.892 L 15.898 31.892 L 15.898 32.971 L 15.898 34.05 L 14.62 34.05 C 13.182 34.05 12.911 34.154 12.911 34.704 C 12.911 35.353 13.167 35.461 14.708 35.461 L 15.898 35.461 L 15.898 36.54 L 15.898 37.62 L 14.587 37.62 L 13.275 37.62 L 13.093 37.838 C 12.451 38.609 13.041 39.031 14.762 39.031 L 15.898 39.031 L 15.898 40.57 C 15.898 42.094 15.9 42.112 16.114 42.314 L 16.33 42.518 L 24.966 42.517 C 34.281 42.516 34.01 42.53 34.609 42.045 C 35.635 41.215 35.799 38.547 34.837 38.319 C 34.199 38.167 33.914 38.62 33.912 39.787 C 33.91 41.031 33.833 41.106 32.553 41.106 L 31.626 41.106 L 31.626 37.723 C 31.625 33.597 31.566 33.367 30.357 32.836 L 29.913 32.64 L 25.651 32.64 L 21.39 32.64 L 20.95 32.837 C 19.722 33.385 19.681 33.542 19.678 37.682 L 19.676 41.106 L 18.534 41.106 L 17.392 41.106 L 17.392 40.079 L 17.392 39.051 L 17.932 39.014 C 19.251 38.924 19.242 37.62 17.923 37.62 L 17.392 37.62 L 17.392 36.54 L 17.392 35.461 L 17.837 35.461 C 18.537 35.461 18.878 35.223 18.883 34.731 C 18.887 34.277 18.568 34.05 17.923 34.05 L 17.392 34.05 L 17.392 32.971 L 17.392 31.892 L 17.923 31.892 C 18.568 31.892 18.887 31.665 18.883 31.21 C 18.878 30.719 18.537 30.48 17.837 30.48 L 17.392 30.48 L 17.392 29.401 L 17.392 28.322 L 17.957 28.322 C 19.259 28.322 19.236 27.017 17.932 26.928 L 17.392 26.891 L 17.392 25.488 L 17.392 24.085 L 25.439 24.107 L 33.487 24.13 L 33.699 24.363 L 33.911 24.595 L 33.911 30.77 C 33.911 34.479 33.944 37.028 33.994 37.153 C 34.165 37.576 34.825 37.69 35.197 37.359 L 35.409 37.172 L 35.385 30.651 C 35.358 23.396 35.403 23.926 34.757 23.316 C 34.077 22.673 34.818 22.72 25.124 22.702 C 19.253 22.691 16.409 22.714 16.282 22.773 Z  M 24.584 24.966 C 21.846 25.762 21.015 29.083 23.094 30.92 C 25.304 32.874 28.885 31.708 29.351 28.884 C 29.766 26.361 27.158 24.217 24.584 24.966 Z  M 26.575 26.442 C 27.394 26.802 27.875 27.513 27.875 28.363 C 27.875 30.589 24.709 31.282 23.674 29.283 C 22.759 27.516 24.699 25.616 26.575 26.442 Z  M 29.9 34.253 L 30.133 34.457 L 30.133 37.782 L 30.133 41.106 L 25.651 41.106 L 21.17 41.106 L 21.17 37.797 L 21.17 34.488 L 21.402 34.269 L 21.634 34.05 L 25.651 34.05 L 29.668 34.05 L 29.9 34.253 Z " fill-rule="evenodd" fill="url(#_lgradient_5)"/></g></svg>