<?xml version="1.0" standalone="no"?><!-- Generator: Gravit.io --><svg xmlns="http://www.w3.org/2000/svg" xmlns:xlink="http://www.w3.org/1999/xlink" style="isolation:isolate" viewBox="0 0 48 48" width="48" height="48"><defs><clipPath id="_clipPath_3WryYAFT7KcPC0GWPoNCFdabOsIKbTnw"><rect width="48" height="48"/></clipPath></defs><g clip-path="url(#_clipPath_3WryYAFT7KcPC0GWPoNCFdabOsIKbTnw)"><linearGradient id="_lgradient_8" x1="0" y1="0.5" x2="1" y2="0.5" gradientTransform="matrix(45,0,0,34,1.403,12.296)" gradientUnits="userSpaceOnUse"><stop offset="2.608695652173913%" stop-opacity="1" style="stop-color:rgb(197,14,210)"/><stop offset="98.69565217391305%" stop-opacity="1" style="stop-color:rgb(133,0,247)"/></linearGradient><path d=" M 5.437 12.414 C 5.175 12.602 5.104 12.948 5.104 14.044 L 5.104 15.112 L 3.713 15.138 C 2.176 15.168 1.875 15.269 1.546 15.871 C 1.388 16.159 1.345 24.476 1.5 24.75 C 1.63 24.98 2.062 25.095 2.39 24.987 C 2.9 24.819 2.908 24.754 2.908 20.439 L 2.908 16.535 L 7.784 16.535 L 12.661 16.535 L 12.661 18.433 C 12.661 20.227 12.671 20.343 12.843 20.55 L 13.025 20.768 L 28.966 20.768 L 44.908 20.768 L 44.908 32.847 L 44.908 44.926 L 23.909 44.926 L 2.911 44.926 L 2.887 35.925 L 2.864 26.925 L 2.651 26.711 C 2.368 26.426 1.876 26.416 1.605 26.689 L 1.414 26.881 L 1.414 36.14 L 1.414 45.399 L 1.612 45.674 C 1.72 45.825 1.921 46.026 2.057 46.122 L 2.305 46.296 L 23.908 46.296 L 45.51 46.296 L 45.758 46.122 C 45.894 46.026 46.095 45.824 46.205 45.673 L 46.403 45.397 L 46.38 32.813 L 46.357 20.229 L 46.153 19.958 C 45.791 19.479 45.54 19.409 44.051 19.372 L 42.711 19.339 L 42.711 16.158 C 42.711 12.935 42.684 12.634 42.378 12.414 C 42.156 12.255 35.706 12.257 35.484 12.417 C 35.228 12.6 35.122 13.002 35.257 13.269 C 35.472 13.693 35.596 13.709 38.515 13.711 L 41.217 13.712 L 41.217 16.535 L 41.217 19.357 L 27.686 19.357 L 14.154 19.357 L 14.154 17.884 C 14.153 16.213 14.097 15.928 13.694 15.561 C 13.224 15.132 13.146 15.123 9.755 15.123 L 6.598 15.123 L 6.598 14.418 L 6.598 13.712 L 19.828 13.712 C 29.717 13.712 33.106 13.688 33.249 13.615 C 33.713 13.382 33.808 12.847 33.445 12.505 L 33.229 12.301 L 19.408 12.303 C 8.209 12.306 5.559 12.327 5.437 12.414 Z  M 22.634 23.02 C 17.857 23.584 14.157 27.555 14.155 32.121 C 14.155 32.796 14.136 32.889 14.001 32.891 C 13.634 32.898 13.364 33.313 13.364 33.872 C 13.364 34.125 13.317 34.207 13.107 34.324 C 10.68 35.679 10.538 39.476 12.852 41.173 C 13.286 41.492 13.364 41.589 13.364 41.814 C 13.364 42.709 13.506 42.767 15.686 42.768 C 18.209 42.768 17.95 43.365 17.915 37.606 L 17.889 33.317 L 17.676 33.103 C 17.474 32.899 17.417 32.889 16.555 32.889 L 15.648 32.889 L 15.648 32.192 C 15.648 29.213 17.515 26.405 20.338 25.14 C 25.724 22.724 31.867 26.228 32.143 31.872 L 32.193 32.889 L 31.273 32.889 C 30.397 32.889 30.342 32.899 30.14 33.103 L 29.927 33.317 L 29.9 37.606 C 29.865 43.365 29.607 42.768 32.129 42.768 C 34.309 42.767 34.452 42.709 34.452 41.814 C 34.452 41.589 34.53 41.492 34.964 41.173 C 37.277 39.476 37.136 35.679 34.708 34.324 C 34.498 34.207 34.452 34.125 34.452 33.872 C 34.452 33.313 34.182 32.898 33.815 32.891 C 33.679 32.889 33.661 32.796 33.66 32.121 C 33.658 26.6 28.485 22.33 22.634 23.02 Z  M 16.439 37.828 L 16.439 41.356 L 15.648 41.356 L 14.857 41.356 L 14.857 37.828 L 14.857 34.3 L 15.648 34.3 L 16.439 34.3 L 16.439 37.828 Z  M 32.958 37.828 L 32.958 41.356 L 32.167 41.356 L 31.376 41.356 L 31.376 37.828 L 31.376 34.3 L 32.167 34.3 L 32.958 34.3 L 32.958 37.828 Z  M 13.361 37.849 C 13.358 39.51 13.347 39.641 13.219 39.488 C 12.767 38.947 12.546 37.888 12.738 37.171 C 12.82 36.862 13.258 36.043 13.341 36.043 C 13.354 36.043 13.362 36.856 13.361 37.849 Z  M 34.872 36.666 C 35.312 37.436 35.18 38.79 34.596 39.488 C 34.468 39.641 34.457 39.508 34.456 37.828 C 34.455 36.556 34.482 36.039 34.544 36.126 C 34.594 36.195 34.741 36.438 34.872 36.666 Z " fill-rule="evenodd" fill="url(#_lgradient_8)"/></g></svg>