<?xml version="1.0" standalone="no"?><!-- Generator: Gravit.io --><svg xmlns="http://www.w3.org/2000/svg" xmlns:xlink="http://www.w3.org/1999/xlink" style="isolation:isolate" viewBox="0 0 48 48" width="48" height="48"><defs><clipPath id="_clipPath_LgHTjGJC1qRZ4yRf9d5fWEyj5AcnUBbQ"><rect width="48" height="48"/></clipPath></defs><g clip-path="url(#_clipPath_LgHTjGJC1qRZ4yRf9d5fWEyj5AcnUBbQ)"><linearGradient id="_lgradient_7" x1="0" y1="0.5" x2="1" y2="0.5" gradientTransform="matrix(45,0,0,34,1.278,12.421)" gradientUnits="userSpaceOnUse"><stop offset="2.608695652173913%" stop-opacity="1" style="stop-color:rgb(197,14,210)"/><stop offset="98.69565217391305%" stop-opacity="1" style="stop-color:rgb(133,0,247)"/></linearGradient><path d=" M 5.312 12.539 C 5.05 12.727 4.979 13.073 4.979 14.169 L 4.979 15.237 L 3.588 15.263 C 2.051 15.293 1.75 15.394 1.421 15.996 C 1.263 16.284 1.22 24.601 1.375 24.875 C 1.505 25.105 1.937 25.22 2.265 25.112 C 2.775 24.944 2.783 24.879 2.783 20.564 L 2.783 16.66 L 7.659 16.66 L 12.536 16.66 L 12.536 18.558 C 12.536 20.352 12.546 20.468 12.718 20.675 L 12.9 20.893 L 28.841 20.893 L 44.783 20.893 L 44.783 32.972 L 44.783 45.051 L 23.784 45.051 L 2.786 45.051 L 2.762 36.05 L 2.739 27.05 L 2.526 26.836 C 2.243 26.551 1.751 26.541 1.48 26.814 L 1.289 27.006 L 1.289 36.265 L 1.289 45.524 L 1.487 45.799 C 1.595 45.95 1.796 46.151 1.932 46.247 L 2.18 46.421 L 23.783 46.421 L 45.385 46.421 L 45.633 46.247 C 45.769 46.151 45.97 45.949 46.08 45.798 L 46.278 45.522 L 46.255 32.938 L 46.232 20.354 L 46.028 20.083 C 45.666 19.604 45.415 19.534 43.926 19.497 L 42.586 19.464 L 42.586 16.283 C 42.586 13.06 42.559 12.759 42.253 12.539 C 42.031 12.38 35.581 12.382 35.359 12.542 C 35.103 12.725 34.997 13.127 35.132 13.394 C 35.347 13.818 35.471 13.834 38.39 13.836 L 41.092 13.837 L 41.092 16.66 L 41.092 19.482 L 27.561 19.482 L 14.029 19.482 L 14.029 18.009 C 14.028 16.338 13.972 16.053 13.569 15.686 C 13.099 15.257 13.021 15.248 9.63 15.248 L 6.473 15.248 L 6.473 14.543 L 6.473 13.837 L 19.703 13.837 C 29.592 13.837 32.981 13.813 33.124 13.74 C 33.588 13.507 33.683 12.972 33.32 12.63 L 33.104 12.426 L 19.283 12.428 C 8.084 12.431 5.434 12.452 5.312 12.539 Z  M 11.835 23.239 C 11.012 23.636 11.089 22.669 11.063 32.923 L 11.04 41.951 L 11.241 42.233 C 11.351 42.388 11.576 42.6 11.74 42.705 L 12.038 42.895 L 20.848 42.873 C 30.85 42.848 29.932 42.919 30.351 42.144 L 30.548 41.778 L 30.548 36.977 C 30.548 31.905 30.54 31.796 30.149 31.654 C 29.843 31.543 29.483 31.606 29.27 31.806 L 29.055 32.01 L 29.055 36.746 L 29.055 41.481 L 20.795 41.481 L 12.536 41.481 L 12.536 32.972 L 12.536 24.463 L 20.795 24.463 L 29.055 24.463 L 29.055 27.456 L 29.055 30.448 L 29.287 30.652 C 29.671 30.987 30.2 30.903 30.446 30.466 C 30.606 30.184 30.589 24.297 30.427 23.942 C 30.281 23.618 29.891 23.26 29.554 23.14 C 29.385 23.08 26.586 23.052 20.764 23.052 L 12.222 23.052 L 11.835 23.239 Z  M 33.796 23.968 C 33.698 24.061 33.262 24.812 32.829 25.636 L 32.042 27.135 L 32.042 34.457 L 32.042 41.778 L 32.24 42.144 C 32.589 42.789 32.746 42.847 34.223 42.877 C 35.67 42.907 35.892 42.839 36.323 42.235 L 36.523 41.955 L 36.523 34.495 L 36.523 27.035 L 35.736 25.548 C 34.799 23.78 34.367 23.428 33.796 23.968 Z  M 34.458 26.372 L 34.595 26.621 L 34.329 26.621 C 34.027 26.621 34.027 26.621 34.165 26.335 C 34.292 26.071 34.293 26.071 34.458 26.372 Z  M 15.206 27.404 C 14.721 27.605 14.641 28.279 15.065 28.584 C 15.185 28.669 16.36 28.692 20.811 28.694 L 26.406 28.697 L 26.588 28.478 C 26.843 28.172 26.825 27.778 26.543 27.528 L 26.317 27.327 L 20.898 27.309 C 16.473 27.293 15.429 27.311 15.206 27.404 Z  M 35.029 33.346 L 35.029 38.659 L 34.283 38.659 L 33.536 38.659 L 33.536 33.346 L 33.536 28.033 L 34.283 28.033 L 35.029 28.033 L 35.029 33.346 Z  M 15.19 32.353 C 14.753 32.519 14.666 33.115 15.024 33.491 L 15.202 33.678 L 20.771 33.678 L 26.339 33.678 L 26.554 33.474 C 26.939 33.11 26.807 32.536 26.296 32.353 C 25.99 32.243 15.48 32.244 15.19 32.353 Z  M 15.213 37.326 C 14.738 37.508 14.64 38.147 15.036 38.469 L 15.269 38.659 L 20.804 38.659 L 26.339 38.659 L 26.554 38.455 C 26.917 38.112 26.823 37.578 26.359 37.344 C 26.132 37.23 15.508 37.213 15.213 37.326 Z  M 35.029 40.776 L 35.029 41.481 L 34.283 41.481 L 33.536 41.481 L 33.536 40.776 L 33.536 40.07 L 34.283 40.07 L 35.029 40.07 L 35.029 40.776 Z " fill-rule="evenodd" fill="url(#_lgradient_7)"/></g></svg>