<?xml version="1.0" standalone="no"?><!-- Generator: Gravit.io --><svg xmlns="http://www.w3.org/2000/svg" xmlns:xlink="http://www.w3.org/1999/xlink" style="isolation:isolate" viewBox="0 0 48 48" width="48" height="48"><defs><clipPath id="_clipPath_TUE9KnE2r4dBLJObKt9qjlEkGxdTkakh"><rect width="48" height="48"/></clipPath></defs><g clip-path="url(#_clipPath_TUE9KnE2r4dBLJObKt9qjlEkGxdTkakh)"><g><linearGradient id="_lgradient_10" x1="0" y1="0.5" x2="1" y2="0.5" gradientTransform="matrix(45,0,0,34,1.5,12.375)" gradientUnits="userSpaceOnUse"><stop offset="2.608695652173913%" stop-opacity="1" style="stop-color:rgb(197,14,210)"/><stop offset="98.69565217391305%" stop-opacity="1" style="stop-color:rgb(133,0,247)"/></linearGradient><path d=" M 28.088 14.544 L 30.11 16.465 L 27.429 16.465 L 24.494 13.677 C 24.485 13.669 24.476 13.661 24.467 13.653 L 25.767 13.653 C 26.646 13.653 27.492 13.978 28.088 14.544 L 28.088 14.544 L 28.088 14.544 L 28.088 14.544 Z  M 21.102 13.653 C 21.981 13.653 22.827 13.978 23.423 14.544 L 25.445 16.465 L 22.405 16.465 L 19.47 13.677 C 19.461 13.669 19.452 13.661 19.443 13.653 L 21.102 13.653 L 21.102 13.653 L 21.102 13.653 L 21.102 13.653 Z  M 4.562 13.653 L 16.078 13.653 C 16.956 13.653 17.802 13.978 18.399 14.544 L 20.421 16.465 L 4.562 16.465 C 3.974 16.465 3.425 16.611 2.958 16.864 L 2.958 15.059 C 2.958 14.284 3.677 13.653 4.562 13.653 L 4.562 13.653 L 4.562 13.653 L 4.562 13.653 Z  M 37.996 23.282 L 31.775 23.282 C 31.373 23.282 31.046 23.568 31.046 23.921 C 31.046 24.274 31.373 24.56 31.775 24.56 L 37.996 24.56 C 38.398 24.56 38.725 24.274 38.725 23.921 C 38.725 23.568 38.398 23.282 37.996 23.282 L 37.996 23.282 Z  M 40.377 28.693 C 40.377 28.717 40.355 28.736 40.328 28.736 L 29.443 28.736 C 29.416 28.736 29.394 28.717 29.394 28.693 L 29.394 21.876 C 29.394 21.853 29.416 21.834 29.443 21.834 L 40.328 21.834 C 40.355 21.834 40.377 21.853 40.377 21.876 L 40.377 28.693 L 40.377 28.693 L 40.377 28.693 L 40.377 28.693 Z  M 40.328 20.555 L 29.443 20.555 C 28.612 20.555 27.936 21.148 27.936 21.876 L 27.936 28.693 C 27.936 29.422 28.612 30.014 29.443 30.014 L 40.328 30.014 C 41.159 30.014 41.835 29.422 41.835 28.693 L 41.835 21.876 C 41.835 21.148 41.159 20.555 40.328 20.555 L 40.328 20.555 L 40.328 20.555 L 40.328 20.555 Z  M 45.042 43.691 C 45.042 44.466 44.323 45.097 43.438 45.097 L 4.562 45.097 C 3.677 45.097 2.958 44.466 2.958 43.691 L 2.958 19.149 C 2.958 18.374 3.677 17.743 4.562 17.743 L 43.438 17.743 C 44.323 17.743 45.042 18.374 45.042 19.149 L 45.042 43.691 L 45.042 43.691 L 45.042 43.691 L 45.042 43.691 Z  M 43.438 16.465 L 32.095 16.465 L 29.159 13.677 C 28.288 12.85 27.051 12.375 25.767 12.375 L 4.562 12.375 C 2.873 12.375 1.5 13.579 1.5 15.059 L 1.5 19.149 L 1.5 43.691 C 1.5 45.171 2.873 46.375 4.562 46.375 L 43.438 46.375 C 45.127 46.375 46.5 45.171 46.5 43.691 L 46.5 19.149 C 46.5 17.669 45.127 16.465 43.438 16.465 L 43.438 16.465 L 43.438 16.465 L 43.438 16.465 Z  M 37.996 26.009 L 31.775 26.009 C 31.373 26.009 31.046 26.295 31.046 26.648 C 31.046 27.001 31.373 27.287 31.775 27.287 L 37.996 27.287 C 38.398 27.287 38.725 27.001 38.725 26.648 C 38.725 26.295 38.398 26.009 37.996 26.009 Z " fill-rule="evenodd" fill="url(#_lgradient_10)"/></g></g></svg>