<?xml version="1.0" standalone="no"?><!-- Generator: Gravit.io --><svg xmlns="http://www.w3.org/2000/svg" xmlns:xlink="http://www.w3.org/1999/xlink" style="isolation:isolate" viewBox="0 0 48 48" width="48" height="48"><defs><clipPath id="_clipPath_58Y4bmtiOZKG13b1md8UjGwhJBdpbU2d"><rect width="48" height="48"/></clipPath></defs><g clip-path="url(#_clipPath_58Y4bmtiOZKG13b1md8UjGwhJBdpbU2d)"><g><linearGradient id="_lgradient_9" x1="0" y1="0.5" x2="1" y2="0.5" gradientTransform="matrix(45,0,0,34,1.403,11.046)" gradientUnits="userSpaceOnUse"><stop offset="2.608695652173913%" stop-opacity="1" style="stop-color:rgb(197,14,210)"/><stop offset="98.69565217391305%" stop-opacity="1" style="stop-color:rgb(133,0,247)"/></linearGradient><path d=" M 5.437 11.164 C 5.175 11.352 5.104 11.698 5.104 12.794 L 5.104 13.862 L 3.713 13.888 C 2.176 13.918 1.875 14.019 1.546 14.621 C 1.388 14.909 1.345 23.226 1.5 23.5 C 1.63 23.73 2.062 23.845 2.39 23.737 C 2.9 23.569 2.908 23.504 2.908 19.189 L 2.908 15.285 L 7.784 15.285 L 12.661 15.285 L 12.661 17.183 C 12.661 18.977 12.671 19.093 12.843 19.3 L 13.025 19.518 L 28.966 19.518 L 44.908 19.518 L 44.908 31.597 L 44.908 43.676 L 23.909 43.676 L 2.911 43.676 L 2.887 34.675 L 2.864 25.675 L 2.651 25.461 C 2.368 25.176 1.876 25.166 1.605 25.439 L 1.414 25.631 L 1.414 34.89 L 1.414 44.149 L 1.612 44.424 C 1.72 44.575 1.921 44.776 2.057 44.872 L 2.305 45.046 L 23.908 45.046 L 45.51 45.046 L 45.758 44.872 C 45.894 44.776 46.095 44.574 46.205 44.423 L 46.403 44.147 L 46.38 31.563 L 46.357 18.979 L 46.153 18.708 C 45.791 18.229 45.54 18.159 44.051 18.122 L 42.711 18.089 L 42.711 14.908 C 42.711 11.685 42.684 11.384 42.378 11.164 C 42.156 11.005 35.706 11.007 35.484 11.167 C 35.228 11.35 35.122 11.752 35.257 12.019 C 35.472 12.443 35.596 12.459 38.515 12.461 L 41.217 12.462 L 41.217 15.285 L 41.217 18.107 L 27.686 18.107 L 14.154 18.107 L 14.154 16.634 C 14.153 14.963 14.097 14.678 13.694 14.311 C 13.224 13.882 13.146 13.873 9.755 13.873 L 6.598 13.873 L 6.598 13.168 L 6.598 12.462 L 19.828 12.462 C 29.717 12.462 33.106 12.438 33.249 12.365 C 33.713 12.132 33.808 11.597 33.445 11.255 L 33.229 11.051 L 19.408 11.053 C 8.209 11.056 5.559 11.077 5.437 11.164 Z  M 27.018 21.835 C 26.378 22.109 26.241 22.396 26.207 23.524 L 26.177 24.499 L 21.421 24.499 C 17.165 24.499 16.683 24.486 16.852 24.375 C 17.28 24.092 17.172 23.338 16.681 23.176 C 16.337 23.063 14.942 23.062 14.629 23.174 C 14.123 23.356 13.985 23.932 14.362 24.288 L 14.57 24.484 L 13.373 24.512 C 11.035 24.568 11.167 24.187 11.167 30.874 L 11.167 36.176 L 11.365 36.344 C 11.658 36.593 11.847 36.631 12.171 36.503 C 12.644 36.316 12.661 36.182 12.661 32.664 L 12.661 29.48 L 15.912 29.48 C 17.7 29.48 19.163 29.505 19.163 29.535 C 19.163 29.565 19.061 29.715 18.936 29.87 C 17.618 31.503 17.614 34.45 18.928 36.205 L 19.145 36.495 L 18.539 37.088 C 17.838 37.773 17.745 38.11 18.148 38.491 C 18.547 38.868 18.889 38.782 19.624 38.123 L 20.261 37.552 L 20.569 37.756 C 23.396 39.634 27.714 38.573 29.246 35.623 C 30.215 33.76 30.06 31.332 28.879 29.87 C 28.754 29.715 28.652 29.565 28.652 29.535 C 28.652 29.505 30.115 29.48 31.903 29.48 L 35.154 29.48 L 35.154 34.793 L 35.154 40.106 L 23.908 40.106 L 12.661 40.106 L 12.659 39.006 C 12.658 37.604 12.412 37.158 11.729 37.32 C 11.205 37.444 11.167 37.566 11.167 39.139 C 11.167 40.75 11.221 40.92 11.863 41.329 L 12.16 41.517 L 23.908 41.517 L 35.656 41.518 L 35.952 41.329 C 36.115 41.225 36.339 41.014 36.448 40.86 L 36.648 40.58 L 36.648 33.076 C 36.648 25.775 36.644 25.563 36.475 25.251 C 36.178 24.701 35.797 24.547 34.649 24.511 L 33.661 24.481 L 33.661 23.632 C 33.661 22.58 33.478 22.17 32.874 21.868 C 32.335 21.599 27.63 21.573 27.018 21.835 Z  M 32.167 23.794 L 32.167 24.499 L 29.927 24.499 L 27.686 24.499 L 27.686 23.794 L 27.686 23.088 L 29.927 23.088 L 32.167 23.088 L 32.167 23.794 Z  M 35.154 26.99 L 35.154 28.069 L 30.977 28.069 C 26.932 28.069 26.789 28.064 26.445 27.898 C 25.084 27.242 22.731 27.242 21.37 27.898 C 21.026 28.064 20.883 28.069 16.838 28.069 L 12.661 28.069 L 12.661 26.99 L 12.661 25.911 L 23.908 25.911 L 35.154 25.911 L 35.154 26.99 Z  M 25.101 28.938 C 28.398 29.863 29.483 33.716 27.09 35.995 C 23.481 39.432 17.626 35.401 19.943 31.076 C 20.854 29.376 23.199 28.404 25.101 28.938 Z  M 23.044 29.608 C 20.226 30.185 19.212 33.587 21.276 35.536 C 23.075 37.237 26.194 36.736 27.265 34.575 C 28.614 31.851 26.164 28.968 23.044 29.608 Z  M 24.877 31.142 C 26.292 31.824 26.564 33.587 25.406 34.573 C 23.962 35.802 21.706 34.884 21.688 33.06 C 21.672 31.504 23.433 30.446 24.877 31.142 Z " fill-rule="evenodd" fill="url(#_lgradient_9)"/></g></g></svg>