<?xml version="1.0" standalone="no"?><!-- Generator: Gravit.io --><svg xmlns="http://www.w3.org/2000/svg" xmlns:xlink="http://www.w3.org/1999/xlink" style="isolation:isolate" viewBox="0 0 48 48" width="48" height="48"><defs><clipPath id="_clipPath_EBqVZa5KZOtxmUxsroRqUOViHQcwBXih"><rect width="48" height="48"/></clipPath></defs><g clip-path="url(#_clipPath_EBqVZa5KZOtxmUxsroRqUOViHQcwBXih)"><linearGradient id="_lgradient_0" x1="0" y1="0.5" x2="1" y2="0.5" gradientTransform="matrix(45,0,0,34,1.653,11.796)" gradientUnits="userSpaceOnUse"><stop offset="2.608695652173913%" stop-opacity="1" style="stop-color:rgb(197,14,210)"/><stop offset="98.69565217391305%" stop-opacity="1" style="stop-color:rgb(133,0,247)"/></linearGradient><path d=" M 5.687 11.914 C 5.425 12.102 5.354 12.448 5.354 13.544 L 5.354 14.612 L 3.963 14.638 C 2.426 14.668 2.125 14.769 1.796 15.371 C 1.638 15.659 1.595 23.976 1.75 24.25 C 1.88 24.48 2.312 24.595 2.64 24.487 C 3.15 24.319 3.158 24.254 3.158 19.939 L 3.158 16.035 L 8.034 16.035 L 12.911 16.035 L 12.911 17.933 C 12.911 19.727 12.921 19.843 13.093 20.05 L 13.275 20.268 L 29.216 20.268 L 45.158 20.268 L 45.158 32.347 L 45.158 44.426 L 24.159 44.426 L 3.161 44.426 L 3.137 35.425 L 3.114 26.425 L 2.901 26.211 C 2.618 25.926 2.126 25.916 1.855 26.189 L 1.664 26.381 L 1.664 35.64 L 1.664 44.899 L 1.862 45.174 C 1.97 45.325 2.171 45.526 2.307 45.622 L 2.555 45.796 L 24.158 45.796 L 45.76 45.796 L 46.008 45.622 C 46.144 45.526 46.345 45.324 46.455 45.173 L 46.653 44.897 L 46.63 32.313 L 46.607 19.729 L 46.403 19.458 C 46.041 18.979 45.79 18.909 44.301 18.872 L 42.961 18.839 L 42.961 15.658 C 42.961 12.435 42.934 12.134 42.628 11.914 C 42.406 11.755 35.956 11.757 35.734 11.917 C 35.478 12.1 35.372 12.502 35.507 12.769 C 35.722 13.193 35.846 13.209 38.765 13.211 L 41.467 13.212 L 41.467 16.035 L 41.467 18.857 L 27.936 18.857 L 14.404 18.857 L 14.404 17.384 C 14.403 15.713 14.347 15.428 13.944 15.061 C 13.474 14.632 13.396 14.623 10.005 14.623 L 6.848 14.623 L 6.848 13.918 L 6.848 13.212 L 20.078 13.212 C 29.967 13.212 33.356 13.188 33.499 13.115 C 33.963 12.882 34.058 12.347 33.695 12.005 L 33.479 11.801 L 19.658 11.803 C 8.459 11.806 5.809 11.827 5.687 11.914 Z  M 23.483 41.298" fill-rule="evenodd" fill="url(#_lgradient_0)"/><g><linearGradient id="_lgradient_1" x1="0" y1="0.5" x2="1" y2="0.5" gradientTransform="matrix(5.631,0,0,6.931,21.897,28.998)" gradientUnits="userSpaceOnUse"><stop offset="0.8695652173913043%" stop-opacity="1" style="stop-color:rgb(197,14,210)"/><stop offset="98.26086956521739%" stop-opacity="1" style="stop-color:rgb(133,0,247)"/></linearGradient><path d=" M 27.327 32.098 L 22.562 29.065 C 22.429 28.981 22.26 28.975 22.121 29.051 C 21.983 29.127 21.897 29.273 21.897 29.431 L 21.897 35.496 C 21.897 35.654 21.983 35.799 22.121 35.876 C 22.186 35.911 22.258 35.929 22.33 35.929 C 22.411 35.929 22.492 35.906 22.562 35.861 L 27.327 32.829 C 27.452 32.749 27.528 32.612 27.528 32.463 C 27.528 32.315 27.452 32.177 27.327 32.098 Z  M 22.763 34.707 L 22.763 30.22 L 26.288 32.463 L 22.763 34.707 Z " fill="url(#_lgradient_1)"/><linearGradient id="_lgradient_2" x1="0" y1="0.5" x2="1" y2="0.5" gradientTransform="matrix(25.125,0,0,19.927,11.5,22.5)" gradientUnits="userSpaceOnUse"><stop offset="0.8695652173913043%" stop-opacity="1" style="stop-color:rgb(197,14,210)"/><stop offset="98.26086956521739%" stop-opacity="1" style="stop-color:rgb(133,0,247)"/></linearGradient><path d=" M 36.192 22.5 L 31.86 22.5 L 16.265 22.5 L 11.933 22.5 C 11.694 22.5 11.5 22.694 11.5 22.933 L 11.5 27.698 L 11.5 32.463 L 11.5 37.228 L 11.5 41.994 C 11.5 42.233 11.694 42.427 11.933 42.427 L 16.265 42.427 L 31.86 42.427 L 36.192 42.427 C 36.431 42.427 36.625 42.233 36.625 41.994 L 36.625 37.228 L 36.625 32.463 L 36.625 27.698 L 36.625 22.933 C 36.625 22.694 36.431 22.5 36.192 22.5 Z  M 15.832 32.03 L 12.366 32.03 L 12.366 28.131 L 15.832 28.131 L 15.832 32.03 Z  M 12.366 32.897 L 15.832 32.897 L 15.832 36.795 L 12.366 36.795 L 12.366 32.897 Z  M 16.698 37.228 L 16.698 32.463 L 16.698 27.698 L 16.698 23.366 L 31.427 23.366 L 31.427 27.698 L 31.427 32.463 L 31.427 37.228 L 31.427 41.56 L 16.698 41.56 L 16.698 37.228 Z  M 35.759 32.03 L 32.293 32.03 L 32.293 28.131 L 35.759 28.131 L 35.759 32.03 Z  M 32.293 32.897 L 35.759 32.897 L 35.759 36.795 L 32.293 36.795 L 32.293 32.897 Z  M 35.759 23.366 L 35.759 27.265 L 32.293 27.265 L 32.293 23.366 L 35.759 23.366 Z  M 12.366 23.366 L 15.832 23.366 L 15.832 27.265 L 12.366 27.265 L 12.366 23.366 Z  M 12.366 41.56 L 12.366 37.662 L 15.832 37.662 L 15.832 41.56 L 12.366 41.56 Z  M 35.759 41.56 L 32.293 41.56 L 32.293 37.662 L 35.759 37.662 L 35.759 41.56 Z " fill="url(#_lgradient_2)"/></g></g></svg>