<?xml version="1.0" standalone="no"?><!-- Generator: Gravit.io --><svg xmlns="http://www.w3.org/2000/svg" xmlns:xlink="http://www.w3.org/1999/xlink" style="isolation:isolate" viewBox="0 0 48 48" width="48" height="48"><defs><clipPath id="_clipPath_RGIFEu5kIfrn9OiWkI9wxv9nPuRbZ3L7"><rect width="48" height="48"/></clipPath></defs><g clip-path="url(#_clipPath_RGIFEu5kIfrn9OiWkI9wxv9nPuRbZ3L7)"><linearGradient id="_lgradient_6" x1="0" y1="0.5" x2="1" y2="0.5" gradientTransform="matrix(45,0,0,34,1.653,11.796)" gradientUnits="userSpaceOnUse"><stop offset="2.608695652173913%" stop-opacity="1" style="stop-color:rgb(197,14,210)"/><stop offset="98.69565217391305%" stop-opacity="1" style="stop-color:rgb(133,0,247)"/></linearGradient><path d=" M 5.687 11.914 C 5.425 12.102 5.354 12.448 5.354 13.544 L 5.354 14.612 L 3.963 14.638 C 2.426 14.668 2.125 14.769 1.796 15.371 C 1.638 15.659 1.595 23.976 1.75 24.25 C 1.88 24.48 2.312 24.595 2.64 24.487 C 3.15 24.319 3.158 24.254 3.158 19.939 L 3.158 16.035 L 8.034 16.035 L 12.911 16.035 L 12.911 17.933 C 12.911 19.727 12.921 19.843 13.093 20.05 L 13.275 20.268 L 29.216 20.268 L 45.158 20.268 L 45.158 32.347 L 45.158 44.426 L 24.159 44.426 L 3.161 44.426 L 3.137 35.425 L 3.114 26.425 L 2.901 26.211 C 2.618 25.926 2.126 25.916 1.855 26.189 L 1.664 26.381 L 1.664 35.64 L 1.664 44.899 L 1.862 45.174 C 1.97 45.325 2.171 45.526 2.307 45.622 L 2.555 45.796 L 24.158 45.796 L 45.76 45.796 L 46.008 45.622 C 46.144 45.526 46.345 45.324 46.455 45.173 L 46.653 44.897 L 46.63 32.313 L 46.607 19.729 L 46.403 19.458 C 46.041 18.979 45.79 18.909 44.301 18.872 L 42.961 18.839 L 42.961 15.658 C 42.961 12.435 42.934 12.134 42.628 11.914 C 42.406 11.755 35.956 11.757 35.734 11.917 C 35.478 12.1 35.372 12.502 35.507 12.769 C 35.722 13.193 35.846 13.209 38.765 13.211 L 41.467 13.212 L 41.467 16.035 L 41.467 18.857 L 27.936 18.857 L 14.404 18.857 L 14.404 17.384 C 14.403 15.713 14.347 15.428 13.944 15.061 C 13.474 14.632 13.396 14.623 10.005 14.623 L 6.848 14.623 L 6.848 13.918 L 6.848 13.212 L 20.078 13.212 C 29.967 13.212 33.356 13.188 33.499 13.115 C 33.963 12.882 34.058 12.347 33.695 12.005 L 33.479 11.801 L 19.658 11.803 C 8.459 11.806 5.809 11.827 5.687 11.914 Z  M 19.257 23.229 C 18.878 23.374 18.819 24.096 19.163 24.39 C 19.443 24.629 28.872 24.629 29.152 24.39 C 29.51 24.084 29.436 23.372 29.03 23.225 C 28.861 23.164 19.419 23.168 19.257 23.229 Z  M 19.325 25.357 C 18.869 25.575 18.782 26.147 19.152 26.497 C 19.423 26.753 28.892 26.753 29.164 26.497 C 29.533 26.147 29.446 25.575 28.99 25.357 C 28.672 25.205 19.643 25.205 19.325 25.357 Z  M 19.264 27.507 C 18.91 27.668 18.886 27.94 18.886 31.654 L 18.886 35.211 L 18.019 35.211 C 16.825 35.211 16.382 35.594 16.776 36.288 C 16.843 36.408 21.023 39.53 23.483 41.298 C 24.188 41.805 24.017 41.891 27.82 39.104 C 31.916 36.103 31.626 36.344 31.626 35.94 C 31.626 35.357 31.364 35.211 30.312 35.211 L 29.43 35.211 L 29.43 31.654 C 29.43 27.892 29.408 27.667 29.026 27.502 C 28.729 27.375 19.544 27.379 19.264 27.507 Z  M 27.936 32.477 C 27.936 36.39 27.936 36.395 28.387 36.574 L 28.648 36.678 L 26.451 38.289 C 25.243 39.176 24.211 39.902 24.158 39.902 C 24.105 39.902 23.073 39.176 21.864 38.289 L 19.667 36.678 L 19.929 36.574 C 20.379 36.395 20.379 36.39 20.379 32.477 L 20.379 28.819 L 24.158 28.819 L 27.936 28.819 L 27.936 32.477 Z " fill-rule="evenodd" fill="url(#_lgradient_6)"/></g></svg>