<?xml version="1.0" standalone="no"?><!-- Generator: Gravit.io --><svg xmlns="http://www.w3.org/2000/svg" xmlns:xlink="http://www.w3.org/1999/xlink" style="isolation:isolate" viewBox="0 0 48 48" width="48" height="48"><defs><clipPath id="_clipPath_7OZ2mOqIC31ldS33tOWGBclnAFZlRQbH"><rect width="48" height="48"/></clipPath></defs><g clip-path="url(#_clipPath_7OZ2mOqIC31ldS33tOWGBclnAFZlRQbH)"><linearGradient id="_lgradient_3" x1="0" y1="0.5" x2="1" y2="0.5" gradientTransform="matrix(45,0,0,34,1.653,12.796)" gradientUnits="userSpaceOnUse"><stop offset="2.608695652173913%" stop-opacity="1" style="stop-color:rgb(197,14,210)"/><stop offset="98.69565217391305%" stop-opacity="1" style="stop-color:rgb(133,0,247)"/></linearGradient><path d=" M 5.687 12.914 C 5.425 13.102 5.354 13.448 5.354 14.544 L 5.354 15.612 L 3.963 15.638 C 2.426 15.668 2.125 15.769 1.796 16.371 C 1.638 16.659 1.595 24.976 1.75 25.25 C 1.88 25.48 2.312 25.595 2.64 25.487 C 3.15 25.319 3.158 25.254 3.158 20.939 L 3.158 17.035 L 8.034 17.035 L 12.911 17.035 L 12.911 18.933 C 12.911 20.727 12.921 20.843 13.093 21.05 L 13.275 21.268 L 29.216 21.268 L 45.158 21.268 L 45.158 33.347 L 45.158 45.426 L 24.159 45.426 L 3.161 45.426 L 3.137 36.425 L 3.114 27.425 L 2.901 27.211 C 2.618 26.926 2.126 26.916 1.855 27.189 L 1.664 27.381 L 1.664 36.64 L 1.664 45.899 L 1.862 46.174 C 1.97 46.325 2.171 46.526 2.307 46.622 L 2.555 46.796 L 24.158 46.796 L 45.76 46.796 L 46.008 46.622 C 46.144 46.526 46.345 46.324 46.455 46.173 L 46.653 45.897 L 46.63 33.313 L 46.607 20.729 L 46.403 20.458 C 46.041 19.979 45.79 19.909 44.301 19.872 L 42.961 19.839 L 42.961 16.658 C 42.961 13.435 42.934 13.134 42.628 12.914 C 42.406 12.755 35.956 12.757 35.734 12.917 C 35.478 13.1 35.372 13.502 35.507 13.769 C 35.722 14.193 35.846 14.209 38.765 14.211 L 41.467 14.212 L 41.467 17.035 L 41.467 19.857 L 27.936 19.857 L 14.404 19.857 L 14.404 18.384 C 14.403 16.713 14.347 16.428 13.944 16.061 C 13.474 15.632 13.396 15.623 10.005 15.623 L 6.848 15.623 L 6.848 14.918 L 6.848 14.212 L 20.078 14.212 C 29.967 14.212 33.356 14.188 33.499 14.115 C 33.963 13.882 34.058 13.347 33.695 13.005 L 33.479 12.801 L 19.658 12.803 C 8.459 12.806 5.809 12.827 5.687 12.914 Z  M 18.71 24.394 C 14.024 25.057 11.538 29.842 13.712 34.011 C 14.986 36.454 18.473 39.732 22.889 42.639 C 24.287 43.559 24.25 43.57 27.499 41.199 L 28.599 40.395 L 29.08 40.755 C 31.98 42.925 36.217 41.778 37.379 38.51 C 38.104 36.469 37.383 34.269 35.55 32.925 L 35.213 32.677 L 35.321 32.155 C 35.754 30.077 34.707 27.223 32.973 25.759 C 30.992 24.084 28.217 23.932 24.575 25.298 C 24.166 25.452 24.149 25.452 23.74 25.298 C 21.731 24.545 19.931 24.221 18.71 24.394 Z  M 21.347 26.03 C 21.805 26.141 22.573 26.391 23.053 26.586 C 23.533 26.781 24.03 26.941 24.158 26.941 C 24.285 26.941 24.782 26.781 25.262 26.586 C 30.021 24.651 33.911 26.696 33.911 31.133 C 33.911 32.048 33.866 32.135 33.441 32.042 C 29.537 31.188 26.029 35.157 27.538 38.723 L 27.74 39.2 L 26.981 39.772 C 26.065 40.462 24.249 41.69 24.145 41.69 C 23.966 41.69 22.137 40.394 20.511 39.115 C 16.493 35.954 14.404 33.219 14.404 31.118 C 14.404 28.433 16.213 26.243 18.798 25.801 C 19.259 25.721 20.547 25.838 21.347 26.03 Z  M 33.411 33.512 C 37.044 34.553 37.044 39.281 33.411 40.322 C 30.936 41.032 28.368 38.898 28.731 36.435 C 29.037 34.363 31.347 32.92 33.411 33.512 Z  M 31.946 34.972 C 31.738 35.126 31.714 35.2 31.714 35.678 L 31.714 36.211 L 31.192 36.211 C 30.509 36.211 30.203 36.43 30.203 36.917 C 30.203 37.404 30.509 37.622 31.192 37.622 L 31.714 37.622 L 31.714 38.156 C 31.714 39.385 33.064 39.37 33.183 38.14 L 33.232 37.622 L 33.698 37.622 C 34.316 37.622 34.649 37.375 34.649 36.917 C 34.649 36.459 34.316 36.211 33.698 36.211 L 33.232 36.211 L 33.183 35.693 C 33.105 34.889 32.518 34.546 31.946 34.972 Z " fill-rule="evenodd" fill="url(#_lgradient_3)"/></g></svg>