<?xml version="1.0" standalone="no"?><!-- Generator: Gravit.io --><svg xmlns="http://www.w3.org/2000/svg" xmlns:xlink="http://www.w3.org/1999/xlink" style="isolation:isolate" viewBox="0 0 48 48" width="48" height="48"><defs><clipPath id="_clipPath_ruFuWPIgW9HCa75vsZsbT4Jz4oHtpm8B"><rect width="48" height="48"/></clipPath></defs><g clip-path="url(#_clipPath_ruFuWPIgW9HCa75vsZsbT4Jz4oHtpm8B)"><linearGradient id="_lgradient_4" x1="0" y1="0.5" x2="1" y2="0.5" gradientTransform="matrix(45,0,0,34,1.653,12.296)" gradientUnits="userSpaceOnUse"><stop offset="2.608695652173913%" stop-opacity="1" style="stop-color:rgb(197,14,210)"/><stop offset="98.69565217391305%" stop-opacity="1" style="stop-color:rgb(133,0,247)"/></linearGradient><path d=" M 5.687 12.414 C 5.425 12.602 5.354 12.948 5.354 14.044 L 5.354 15.112 L 3.963 15.138 C 2.426 15.168 2.125 15.269 1.796 15.871 C 1.638 16.159 1.595 24.476 1.75 24.75 C 1.88 24.98 2.312 25.095 2.64 24.987 C 3.15 24.819 3.158 24.754 3.158 20.439 L 3.158 16.535 L 8.034 16.535 L 12.911 16.535 L 12.911 18.433 C 12.911 20.227 12.921 20.343 13.093 20.55 L 13.275 20.768 L 29.216 20.768 L 45.158 20.768 L 45.158 32.847 L 45.158 44.926 L 24.159 44.926 L 3.161 44.926 L 3.137 35.925 L 3.114 26.925 L 2.901 26.711 C 2.618 26.426 2.126 26.416 1.855 26.689 L 1.664 26.881 L 1.664 36.14 L 1.664 45.399 L 1.862 45.674 C 1.97 45.825 2.171 46.026 2.307 46.122 L 2.555 46.296 L 24.158 46.296 L 45.76 46.296 L 46.008 46.122 C 46.144 46.026 46.345 45.824 46.455 45.673 L 46.653 45.397 L 46.63 32.813 L 46.607 20.229 L 46.403 19.958 C 46.041 19.479 45.79 19.409 44.301 19.372 L 42.961 19.339 L 42.961 16.158 C 42.961 12.935 42.934 12.634 42.628 12.414 C 42.406 12.255 35.956 12.257 35.734 12.417 C 35.478 12.6 35.372 13.002 35.507 13.269 C 35.722 13.693 35.846 13.709 38.765 13.711 L 41.467 13.712 L 41.467 16.535 L 41.467 19.357 L 27.936 19.357 L 14.404 19.357 L 14.404 17.884 C 14.403 16.213 14.347 15.928 13.944 15.561 C 13.474 15.132 13.396 15.123 10.005 15.123 L 6.848 15.123 L 6.848 14.418 L 6.848 13.712 L 20.078 13.712 C 29.967 13.712 33.356 13.688 33.499 13.615 C 33.963 13.382 34.058 12.847 33.695 12.505 L 33.479 12.301 L 19.658 12.303 C 8.459 12.306 5.809 12.327 5.687 12.414 Z  M 13.699 23.114 C 13.441 23.237 13.24 23.414 13.11 23.632 L 12.914 23.964 L 12.912 29.63 C 12.911 35.162 12.915 35.3 13.084 35.46 C 13.468 35.823 14.052 35.742 14.292 35.294 C 14.374 35.14 14.402 34.27 14.403 31.83 L 14.404 28.572 L 24.158 28.572 L 33.911 28.572 L 33.911 34.964 L 33.911 41.356 L 24.158 41.356 L 14.404 41.356 L 14.404 39.194 C 14.404 36.574 14.369 36.458 13.578 36.458 C 12.914 36.458 12.9 36.522 12.929 39.388 C 12.958 42.218 12.943 42.15 13.613 42.581 L 13.903 42.768 L 24.158 42.768 L 34.412 42.768 L 34.702 42.581 C 35.425 42.116 35.358 43.063 35.382 32.945 L 35.403 23.964 L 35.206 23.632 C 35.076 23.414 34.874 23.236 34.617 23.114 L 34.225 22.927 L 24.158 22.927 L 14.09 22.927 L 13.699 23.114 Z  M 33.911 25.749 L 33.911 27.161 L 24.158 27.161 L 14.404 27.161 L 14.404 25.749 L 14.404 24.338 L 24.158 24.338 L 33.911 24.338 L 33.911 25.749 Z  M 31.905 25.277 C 31.38 25.805 31.947 26.632 32.709 26.451 C 33.284 26.315 33.441 25.541 32.963 25.198 C 32.707 25.014 32.123 25.058 31.905 25.277 Z  M 15.588 37.201 C 14.889 37.471 14.893 40.358 15.592 40.61 C 15.906 40.722 32.409 40.722 32.723 40.61 C 33.262 40.416 33.454 37.816 32.964 37.353 L 32.764 37.164 L 24.265 37.148 C 19.591 37.139 15.686 37.163 15.588 37.201 Z  M 31.714 38.907 L 31.714 39.281 L 24.158 39.281 L 16.601 39.281 L 16.601 38.907 L 16.601 38.534 L 24.158 38.534 L 31.714 38.534 L 31.714 38.907 Z " fill-rule="evenodd" fill="url(#_lgradient_4)"/></g></svg>