<?xml version="1.0" encoding="UTF-8" standalone="no"?>
<!-- Created with Inkscape (http://www.inkscape.org/) -->

<svg
   width="16"
   height="16"
   id="svg2"
   version="1.1"
   inkscape:version="1.3.2 (091e20ef0f, 2023-11-25)"
   sodipodi:docname="close_prelight.svg"
   inkscape:export-filename="close_prelight.png"
   inkscape:export-xdpi="96"
   inkscape:export-ydpi="96"
   xmlns:inkscape="http://www.inkscape.org/namespaces/inkscape"
   xmlns:sodipodi="http://sodipodi.sourceforge.net/DTD/sodipodi-0.dtd"
   xmlns="http://www.w3.org/2000/svg"
   xmlns:svg="http://www.w3.org/2000/svg"
   xmlns:rdf="http://www.w3.org/1999/02/22-rdf-syntax-ns#"
   xmlns:cc="http://creativecommons.org/ns#"
   xmlns:dc="http://purl.org/dc/elements/1.1/">
  <defs
     id="defs4" />
  <sodipodi:namedview
     id="base"
     pagecolor="#ffffff"
     bordercolor="#666666"
     borderopacity="1.0"
     inkscape:pageopacity="0.0"
     inkscape:pageshadow="2"
     inkscape:zoom="22.4"
     inkscape:cx="1.25"
     inkscape:cy="18.303571"
     inkscape:document-units="px"
     inkscape:current-layer="svg2"
     showgrid="true"
     fit-margin-top="0"
     fit-margin-left="0"
     fit-margin-right="0"
     fit-margin-bottom="0"
     inkscape:window-width="2560"
     inkscape:window-height="1372"
     inkscape:window-x="0"
     inkscape:window-y="0"
     inkscape:window-maximized="1"
     inkscape:showpageshadow="2"
     inkscape:pagecheckerboard="0"
     inkscape:deskcolor="#d1d1d1" />
  <metadata
     id="metadata7">
    <rdf:RDF>
      <cc:Work
         rdf:about="">
        <dc:format>image/svg+xml</dc:format>
        <dc:type
           rdf:resource="http://purl.org/dc/dcmitype/StillImage" />
        <dc:title />
      </cc:Work>
    </rdf:RDF>
  </metadata>
  <rect
     style="fill:#ba706e;fill-opacity:1;stroke:#88b7af;stroke-width:0;stroke-linejoin:miter;stroke-dasharray:none"
     id="rect1"
     width="15"
     height="15"
     x="0.50000012"
     y="0.5" />
  <path
     inkscape:connector-curvature="0"
     id="path4098"
     d="m 4.2587286,3.5000005 c -0.1912514,0 -0.3827915,0.074524 -0.5279137,0.2195607 l -0.013116,0.013108 c -0.290265,0.2900723 -0.290265,0.7651315 0,1.0552038 L 6.931083,7.9993628 3.7176993,11.214131 c -0.2901804,0.289987 -0.2901804,0.761854 0,1.051925 l 0.013116,0.01639 c 0.290158,0.290072 0.7655832,0.290072 1.0558258,0 L 8.0000243,9.0709518 11.213408,12.282443 c 0.29018,0.290071 0.765582,0.290071 1.055827,0 l 0.01312,-0.01639 c 0.290158,-0.289988 0.290158,-0.761938 0,-1.051926 L 9.0689673,7.9993628 12.282349,4.7878733 c 0.290159,-0.2900725 0.290244,-0.7652165 0,-1.0552038 l -0.01312,-0.013109 c -0.290328,-0.2899872 -0.765647,-0.2899872 -1.055827,0 L 8.0000243,6.931051 4.7866406,3.7195612 C 4.6415184,3.5745253 4.4499785,3.5000005 4.2587286,3.5000005 Z"
     style="fill:#000000;fill-opacity:1;fill-rule:evenodd;stroke:none;stroke-width:0.0172751" />
  <g
     inkscape:label="Layer 1"
     inkscape:groupmode="layer"
     id="layer1"
     transform="translate(-671.14288,-648.57648)" />
</svg>
